# xmcd
#
# Track frame offsets:
#	150
#	20750
#	46206
#
# Disc length: 948 seconds
#
# Revision: 1
# Processed by: cddbd v1.5.2PL0 Copyright (c) Steve Scherf et al.
# Submitted via: dBpowerAMP V4.0
#
DISCID=1e03b203
DTITLE=Lacrimosa - Feuer
DYEAR=2009
DGENRE=Gothic Rock
TTITLE0=Feuer
TTITLE1=I lost my star in Krasnodar (special version)
TTITLE2=The last millennium
EXTD=
EXTT0=
EXTT1=
EXTT2=
PLAYORDER=
